<svg version="1.1" xmlns="http://www.w3.org/2000/svg" xmlns:xlink="http://www.w3.org/1999/xlink" width="444.74332" height="312.99961" viewBox="0,0,444.74332,312.99961"><g transform="translate(-6.19529,-1.33248)"><g data-paper-data="{&quot;isPaintingLayer&quot;:true}" fill-rule="nonzero" stroke-linejoin="miter" stroke-miterlimit="10" stroke-dasharray="" stroke-dashoffset="0" style="mix-blend-mode: normal"><path d="M34.94466,253.78736l1.39018,-130.23746l215.12005,64.97304z" fill="#fefefe" stroke="#020403" stroke-width="0.5" stroke-linecap="butt"/><path d="M38.21065,247.9142l0.93788,-120.1438l199.77073,60.40018z" fill="#353446" stroke="none" stroke-width="0" stroke-linecap="butt"/><path d="M43.36904,241.48966v-107.48228l177.82408,53.45978z" fill="#c73400" stroke="none" stroke-width="0" stroke-linecap="butt"/><path d="M43.36904,241.11451v-107.48228l156.44018,53.45978z" fill="#bcbbcb" stroke="none" stroke-width="0" stroke-linecap="butt"/><path d="M42.99389,241.67725v-107.48228l43.33055,53.45978z" fill="#cbdddd" stroke="none" stroke-width="0" stroke-linecap="butt"/><path d="M43.08767,241.11451l44.45602,-53.45978l111.42142,-0.56274z" fill="#a9bbbb" stroke="none" stroke-width="0" stroke-linecap="butt"/><path d="M51.20041,154.89349c0,0 -14.79375,-10.29669 -26.1932,5.33874c-10.24767,14.05561 6.96645,21.39114 6.96645,21.39114c0,0 12.94467,2.88784 17.60465,5.09074c3.72736,1.762 8.18736,7.10185 8.18736,7.10185c0,0 12.22107,25.6859 -9.10322,32.42555c-22.45524,7.09713 -28.4124,-12.72984 -28.4124,-12.72984" fill="none" stroke="#ffffff" stroke-width="3.5" stroke-linecap="round"/><path d="M82.61977,226.17321l1.40683,-73.62444" fill="none" stroke="#ffffff" stroke-width="3.5" stroke-linecap="round"/><path d="M64.3309,151.6109h40.79824" fill="none" stroke="#ffffff" stroke-width="3.5" stroke-linecap="round"/><path d="M107.47386,226.64214c0,0 4.96894,-30.7378 7.96767,-42.32754c2.76609,-10.69064 10.3212,-28.01428 10.3212,-28.01428c0,0 6.4257,18.2369 8.70907,28.44074c2.66075,11.89025 5.35928,41.90106 5.35928,41.90106" fill="none" stroke="#ffffff" stroke-width="3.5" stroke-linecap="round"/><path d="M133.26584,194.75387l-17.81992,-0.93788" fill="none" stroke="#ffffff" stroke-width="3.5" stroke-linecap="round"/><path d="M152.9616,227.1111l-0.46895,-74.09336c0,0 27.39807,-5.17404 27.81785,10.89828c0.56547,21.6515 -22.65946,25.2105 -22.65946,25.2105c0,0 10.70068,10.21053 14.99448,16.42121c4.45396,6.44238 11.26645,21.56337 11.26645,21.56337" fill="none" stroke="#ffffff" stroke-width="3.5" stroke-linecap="round"/><path d="M208.29714,227.58005l-0.46895,-75.50022" fill="none" stroke="#ffffff" stroke-width="3.5" stroke-linecap="round"/><path d="M227.05493,152.07983h-40.79824" fill="none" stroke="#ffffff" stroke-width="3.5" stroke-linecap="round"/><path d="M51.20041,154.89349c0,0 -14.79375,-10.29669 -26.1932,5.33874c-10.24764,14.05561 6.96645,21.39114 6.96645,21.39114c0,0 12.94467,2.88784 17.60465,5.09074c3.72736,1.76203 8.18733,7.10185 8.18733,7.10185c0,0 12.22107,25.68588 -9.10322,32.42555c-22.45524,7.09713 -28.41243,-12.72984 -28.41243,-12.72984" fill="none" stroke="#000000" stroke-width="2" stroke-linecap="round"/><path d="M82.61977,226.17319l1.40683,-73.62444" fill="none" stroke="#000000" stroke-width="2" stroke-linecap="round"/><path d="M64.3309,151.61087h40.79824" fill="none" stroke="#000000" stroke-width="2" stroke-linecap="round"/><path d="M107.47386,226.64214c0,0 4.96894,-30.73782 7.96767,-42.32756c2.76612,-10.69064 10.3212,-28.01424 10.3212,-28.01424c0,0 6.4257,18.23687 8.70907,28.44074c2.66075,11.89027 5.35928,41.90106 5.35928,41.90106" fill="none" stroke="#000000" stroke-width="2" stroke-linecap="round"/><path d="M133.26584,194.75383l-17.81992,-0.93788" fill="none" stroke="#000000" stroke-width="2" stroke-linecap="round"/><path d="M152.96154,227.1111l-0.46895,-74.09336c0,0 27.39807,-5.17404 27.81785,10.89828c0.56549,21.65146 -22.65943,25.2105 -22.65943,25.2105c0,0 10.7007,10.21053 14.99452,16.42121c4.45399,6.44235 11.26645,21.56337 11.26645,21.56337" fill="none" stroke="#000000" stroke-width="2" stroke-linecap="round"/><path d="M207.82816,152.07983l0.46895,75.5002" fill="none" stroke="#000000" stroke-width="2" stroke-linecap="round"/><path d="M227.05493,152.07983h-40.79824" fill="none" stroke="#000000" stroke-width="2" stroke-linecap="round"/><path d="M242.73299,104.26193h208.20562l-103.79204,210.07016z" fill="#adadad" stroke="none" stroke-width="0" stroke-linecap="butt"/><path d="M253.42464,109.88913h188.51051l-93.9739,190.19867z" fill="#000000" stroke="none" stroke-width="0" stroke-linecap="butt"/><path d="M265.24169,115.51628l83.84496,3.93901l-0.5627,143.49306z" fill="#a2a2a2" stroke="none" stroke-width="0" stroke-linecap="butt"/><path d="M345.14765,156.59469l-79.34321,-40.51571l162.06276,0.5627l-80.53514,146.20867z" fill="#d2d2d2" stroke="none" stroke-width="0" stroke-linecap="butt"/><path d="M319.82535,214.42961l-9.5662,-68.6516c0,0 5.0579,71.25506 -19.1324,70.33975c-25.09358,-0.94951 -20.25785,-70.33975 -20.25785,-70.33975" fill="none" stroke="#000000" stroke-width="2" stroke-linecap="round"/><path d="M367.09365,147.4662c0,0 -19.04462,-0.44454 -24.23337,6.72182c-3.38057,4.66907 1.16196,14.09873 1.16196,14.09873c0,0 11.05561,4.87778 16.69105,8.72013c4.02732,2.7459 8.0685,8.16138 8.0685,8.16138c0,0 8.67854,18.49346 -0.95922,24.81676c-22.3496,14.66355 -27.73938,-2.30806 -27.73938,-2.30806" fill="none" stroke="#000000" stroke-width="2" stroke-linecap="round"/><path d="M425.05357,215.55506l-32.63765,-0.5627v-69.21431h29.82405" fill="none" stroke="#000000" stroke-width="2" stroke-linecap="round"/><path d="M394.66681,176.16481l24.7596,-0.5627" fill="none" stroke="#000000" stroke-width="2" stroke-linecap="round"/><path d="M320.91282,213.61867l-9.5662,-68.6516c0,0 5.0579,71.25507 -19.1324,70.33976c-25.09358,-0.94951 -20.25785,-70.33976 -20.25785,-70.33976" fill="none" stroke="#bfbfbf" stroke-width="3.5" stroke-linecap="round"/><path d="M368.18112,146.65526c0,0 -19.04462,-0.44454 -24.23337,6.72182c-3.38057,4.66903 1.16196,14.09873 1.16196,14.09873c0,0 11.05561,4.87778 16.69102,8.72013c4.02732,2.7459 8.06854,8.16137 8.06854,8.16137c0,0 8.67854,18.49346 -0.95922,24.81677c-22.3496,14.66359 -27.73938,-2.30806 -27.73938,-2.30806" fill="none" stroke="#bfbfbf" stroke-width="3.5" stroke-linecap="round"/><path d="M426.14103,214.74412l-32.63765,-0.5627v-69.21431h29.82405" fill="none" stroke="#bfbfbf" stroke-width="3.5" stroke-linecap="round"/><path d="M395.75424,175.35387l24.7596,-0.5627" fill="none" stroke="#bfbfbf" stroke-width="3.5" stroke-linecap="round"/><path d="M320.91282,213.61867l-9.5662,-68.6516c0,0 5.0579,71.25507 -19.1324,70.33976c-25.09358,-0.94951 -20.25785,-70.33976 -20.25785,-70.33976" fill="none" stroke="#000000" stroke-width="2" stroke-linecap="round"/><path d="M368.18112,146.65526c0,0 -19.04462,-0.44454 -24.23337,6.72182c-3.38057,4.66903 1.16196,14.09873 1.16196,14.09873c0,0 11.05561,4.87778 16.69102,8.72013c4.02732,2.7459 8.06854,8.16137 8.06854,8.16137c0,0 8.67854,18.49346 -0.95922,24.81677c-22.3496,14.66359 -27.73938,-2.30806 -27.73938,-2.30806" fill="none" stroke="#000000" stroke-width="2" stroke-linecap="round"/><path d="M426.14103,214.74412l-32.63765,-0.5627v-69.21431h29.82405" fill="none" stroke="#000000" stroke-width="2" stroke-linecap="round"/><path d="M395.75424,175.35387l24.7596,-0.5627" fill="none" stroke="#000000" stroke-width="2" stroke-linecap="round"/><text transform="translate(6.44529,23.58248) scale(0.5,0.5)" font-size="40" xml:space="preserve" fill="#000000" fill-rule="nonzero" stroke="none" stroke-width="1" stroke-linecap="butt" stroke-linejoin="miter" stroke-miterlimit="10" stroke-dasharray="" stroke-dashoffset="0" font-family="Malgun Gothic" font-weight="normal" text-anchor="start" style="mix-blend-mode: normal"><tspan x="0" dy="0">Created by LSTV (www.lstv.ml)</tspan><tspan x="0" dy="46.15px">Please always leave credit.</tspan></text><text transform="translate(271.45892,120.54081) scale(0.09191,0.09191)" font-size="40" xml:space="preserve" fill="#000000" fill-rule="nonzero" stroke="none" stroke-width="1" stroke-linecap="butt" stroke-linejoin="miter" stroke-miterlimit="10" stroke-dasharray="" stroke-dashoffset="0" font-family="Malgun Gothic" font-weight="normal" text-anchor="start" style="mix-blend-mode: normal"><tspan x="0" dy="0">LSTV</tspan></text><text transform="translate(44.45892,142.04082) scale(0.09191,0.09191)" font-size="40" xml:space="preserve" fill="#000000" fill-rule="nonzero" stroke="none" stroke-width="1" stroke-linecap="butt" stroke-linejoin="miter" stroke-miterlimit="10" stroke-dasharray="" stroke-dashoffset="0" font-family="Malgun Gothic" font-weight="normal" text-anchor="start" style="mix-blend-mode: normal"><tspan x="0" dy="0">LSTV</tspan></text><text transform="translate(263.45892,114.04081) scale(0.09191,0.09191)" font-size="40" xml:space="preserve" fill="#000000" fill-rule="nonzero" stroke="none" stroke-width="1" stroke-linecap="butt" stroke-linejoin="miter" stroke-miterlimit="10" stroke-dasharray="" stroke-dashoffset="0" font-family="Malgun Gothic" font-weight="normal" text-anchor="start" style="mix-blend-mode: normal"><tspan x="0" dy="0">LSTV</tspan></text><text transform="translate(221.45891,189.44991) scale(0.09191,0.09191)" font-size="40" xml:space="preserve" fill="#353446" fill-rule="nonzero" stroke="none" stroke-width="1" stroke-linecap="butt" stroke-linejoin="miter" stroke-miterlimit="10" stroke-dasharray="" stroke-dashoffset="0" font-family="Malgun Gothic" font-weight="normal" text-anchor="start" style="mix-blend-mode: normal"><tspan x="0" dy="0">LSTV</tspan></text></g></g></svg>