<svg version="1.1" xmlns="http://www.w3.org/2000/svg" xmlns:xlink="http://www.w3.org/1999/xlink" width="465.02508" height="40.58042" viewBox="0,0,465.02508,40.58042"><g transform="translate(-7.48746,-159.70979)"><g data-paper-data="{&quot;isPaintingLayer&quot;:true}" fill-rule="nonzero" stroke-linejoin="miter" stroke-miterlimit="10" stroke-dasharray="" stroke-dashoffset="0" style="mix-blend-mode: normal"><path d="" fill="none" stroke="#000000" stroke-width="0.5" stroke-linecap="round"/><path d="" fill="none" stroke="#000000" stroke-width="0.5" stroke-linecap="round"/><path d="" fill="none" stroke="#000000" stroke-width="0.5" stroke-linecap="round"/><path d="M7.73991,200.29021v-40.58042h464.77263v40.58042c0,0 -46.90803,-3.19725 -128.17892,-3.19725c-18.65123,0 -170.76803,-11.27668 -213.38116,-9.1616c-56.90474,2.82443 -123.21254,12.35885 -123.21254,12.35885z" fill="#8dff5c" stroke="none" stroke-width="0" stroke-linecap="butt"/><path d="M419.7488,186.17783c-44.52212,-4.85688 -105.18582,4.08608 -162.09055,1.26165c-42.61313,-2.11507 -85.66868,-16.6623 -104.3199,-16.6623c-81.27089,0 -145.85089,29.51304 -145.85089,29.51304v-40.58042h464.77263v40.58042c0,0 -0.42631,-8.43048 -52.51128,-14.11238z" data-paper-data="{&quot;index&quot;:null}" fill="#288003" stroke="none" stroke-width="0" stroke-linecap="butt"/><path d="M7.48746,200.29021v-40.58042h464.77263v40.58042c0,0 -64.58,-29.51303 -145.85089,-29.51303c-18.65123,0 -61.70677,14.54722 -104.3199,16.6623c-56.90474,2.82443 -117.56843,-6.11852 -162.09055,-1.26165c-52.08498,5.6819 -52.51128,14.11238 -52.51128,14.11238z" fill="#4ef504" stroke="none" stroke-width="0" stroke-linecap="butt"/></g></g></svg>