<svg version="1.1" xmlns="http://www.w3.org/2000/svg" xmlns:xlink="http://www.w3.org/1999/xlink" width="325" height="323.10877"><defs><radialGradient cx="240" cy="180" r="162.5" gradientUnits="userSpaceOnUse" id="color-1"><stop offset="0" stop-color="#000000"/><stop offset="1" stop-color="#000000" stop-opacity="0"/></radialGradient><linearGradient x1="240" y1="37.33505" x2="240" y2="322.66495" gradientUnits="userSpaceOnUse" id="color-2"><stop offset="0" stop-color="#72cb97"/><stop offset="1" stop-color="#2088d4"/></linearGradient><linearGradient x1="232.5" y1="208" x2="519.5" y2="208" gradientUnits="userSpaceOnUse" id="color-3"><stop offset="0" stop-color="#6f92ab" stop-opacity="0"/><stop offset="1" stop-color="#6f92ab"/></linearGradient><linearGradient x1="240" y1="113" x2="240" y2="247" gradientUnits="userSpaceOnUse" id="color-4"><stop offset="0" stop-color="#ffffff"/><stop offset="1" stop-color="#b8b8b8"/></linearGradient><linearGradient x1="171.5" y1="180" x2="308.5" y2="180" gradientUnits="userSpaceOnUse" id="color-5"><stop offset="0" stop-color="#b8b8b8" stop-opacity="0"/><stop offset="1" stop-color="#b8b8b8"/></linearGradient><linearGradient x1="240" y1="123.73568" x2="240" y2="236.26433" gradientUnits="userSpaceOnUse" id="color-6"><stop offset="0" stop-color="#72cb97"/><stop offset="1" stop-color="#2088d4"/></linearGradient><linearGradient x1="224.53731" y1="176.65672" x2="110.02985" y2="176.65672" gradientUnits="userSpaceOnUse" id="color-7"><stop offset="0" stop-color="#b8b8b8" stop-opacity="0"/><stop offset="1" stop-color="#b8b8b8"/></linearGradient></defs><g transform="translate(-77.5,-18.44561)"><g data-paper-data="{&quot;isPaintingLayer&quot;:true}" fill="none" fill-rule="nonzero" stroke="none" stroke-width="0" stroke-linecap="butt" stroke-linejoin="miter" stroke-miterlimit="10" stroke-dasharray="" stroke-dashoffset="0" font-family="none" font-weight="none" font-size="none" text-anchor="none" style="mix-blend-mode: normal"><path d="M402.5,180c0,89.22403 -72.75373,161.55439 -162.5,161.55439c-89.74627,0 -162.5,-72.33036 -162.5,-161.55439c0,-89.22402 72.75373,-161.55439 162.5,-161.55439c89.74627,0 162.5,72.33037 162.5,161.55439z" data-paper-data="{&quot;origPos&quot;:null}" fill="url(#color-1)"/><path d="M383.5,180c0,78.79168 -64.24714,142.66495 -143.5,142.66495c-79.25286,0 -143.5,-63.87327 -143.5,-142.66495c0,-78.79167 64.24714,-142.66495 143.5,-142.66495c79.25286,0 143.5,63.87328 143.5,142.66495z" data-paper-data="{&quot;origPos&quot;:null}" fill="url(#color-2)"/><path d="M383.5,180c0,78.79168 -64.24714,142.66495 -143.5,142.66495c-79.25286,0 -143.5,-63.87327 -143.5,-142.66495c0,-78.79167 64.24714,-142.66495 143.5,-142.66495c79.25286,0 143.5,63.87328 143.5,142.66495z" data-paper-data="{&quot;origPos&quot;:null}" fill="url(#color-3)"/><path d="M308.5,180c0,37.00308 -30.6685,67 -68.5,67c-37.8315,0 -68.5,-29.99692 -68.5,-67c0,-37.00308 30.6685,-67 68.5,-67c37.8315,0 68.5,29.99692 68.5,67z" data-paper-data="{&quot;origPos&quot;:null}" fill="url(#color-4)"/><path d="M308.5,180c0,37.00308 -30.6685,67 -68.5,67c-37.8315,0 -68.5,-29.99692 -68.5,-67c0,-37.00308 30.6685,-67 68.5,-67c37.8315,0 68.5,29.99692 68.5,67z" data-paper-data="{&quot;origPos&quot;:null}" fill="url(#color-5)"/><path d="M296.59365,180c0,31.07393 -25.33784,56.26433 -56.59365,56.26433c-31.25581,0 -56.59365,-25.1904 -56.59365,-56.26433c0,-31.07393 25.33784,-56.26432 56.59365,-56.26432c31.25581,0 56.59365,25.19039 56.59365,56.26432z" data-paper-data="{&quot;origPos&quot;:null,&quot;index&quot;:null}" fill="url(#color-6)"/><path d="M240,124c31.62036,0 57.25373,25.07205 57.25373,56c0,30.92795 -25.63337,56 -57.25373,56c-31.62036,0 -57.25373,-25.07205 -57.25373,-56c0,-30.92795 25.63337,-56 57.25373,-56z" data-paper-data="{&quot;origPos&quot;:null,&quot;index&quot;:null}" fill="url(#color-7)"/></g></g></svg>