<svg version="1.1" xmlns="http://www.w3.org/2000/svg" xmlns:xlink="http://www.w3.org/1999/xlink" width="414.68489" height="111.13203"><defs><radialGradient cx="91.10874" cy="179.32253" r="55.89126" gradientUnits="userSpaceOnUse" id="color-1"><stop offset="0" stop-color="#000000"/><stop offset="1" stop-color="#000000" stop-opacity="0"/></radialGradient><linearGradient x1="91.10874" y1="134.27324" x2="91.10874" y2="224.37182" gradientUnits="userSpaceOnUse" id="color-2"><stop offset="0" stop-color="#cc7272"/><stop offset="1" stop-color="#89151b"/></linearGradient><linearGradient x1="88.74047" y1="188.16408" x2="179.36641" y2="188.16408" gradientUnits="userSpaceOnUse" id="color-3"><stop offset="0" stop-color="#00f0ff"/><stop offset="1" stop-color="#0082e0"/></linearGradient><linearGradient x1="135.83979" y1="184.66775" x2="46.37769" y2="173.97731" gradientUnits="userSpaceOnUse" id="color-4"><stop offset="0" stop-color="#6cb0e0" stop-opacity="0"/><stop offset="1" stop-color="#6cb0e0"/></linearGradient></defs><g transform="translate(-35.21748,-123.75651)"><g data-paper-data="{&quot;isPaintingLayer&quot;:true}" fill="none" fill-rule="nonzero" stroke="none" stroke-width="none" stroke-linecap="butt" stroke-linejoin="miter" stroke-miterlimit="10" stroke-dasharray="" stroke-dashoffset="0" font-family="none" font-weight="none" font-size="none" text-anchor="none" style="mix-blend-mode: normal"><g data-paper-data="{&quot;origPos&quot;:null}" stroke-width="0"><path d="M147,179.32253c0,30.68827 -25.02337,55.56602 -55.89126,55.56602c-30.86789,0 -55.89126,-24.87775 -55.89126,-55.56601c0,-30.68826 25.02337,-55.56602 55.89126,-55.56602c30.86789,0 55.89126,24.87776 55.89126,55.56602z" data-paper-data="{&quot;origPos&quot;:null}" fill="url(#color-1)"/><path d="M136.42171,179.32253c0,24.88003 -20.28731,45.04929 -45.31297,45.04929c-25.02566,0 -45.31297,-20.16925 -45.31297,-45.04929c0,-24.88003 20.28731,-45.04929 45.31297,-45.04929c25.02566,0 45.31297,20.16926 45.31297,45.04929z" data-paper-data="{&quot;origPos&quot;:null}" fill="url(#color-2)"/><path d="M136.42171,179.32253c0,24.88003 -20.28731,45.04929 -45.31297,45.04929c-25.02566,0 -45.31297,-20.16925 -45.31297,-45.04929c0,-24.88003 20.28731,-45.04929 45.31297,-45.04929c25.02566,0 45.31297,20.16926 45.31297,45.04929z" data-paper-data="{&quot;origPos&quot;:null}" fill="url(#color-3)"/><path d="M85.73224,224.3154c-24.70428,-2.95209 -42.3239,-25.48922 -39.35454,-50.3381c2.96936,-24.84887 25.40328,-42.59973 50.10756,-39.64765c24.70427,2.95208 42.3239,25.48922 39.35454,50.33809c-2.96937,24.84887 -25.40328,42.59974 -50.10755,39.64766z" data-paper-data="{&quot;origPos&quot;:null,&quot;origRot&quot;:0}" fill="url(#color-4)"/><path d="M75.32025,205.68931v-52.73356l38.52392,26.84043z" data-paper-data="{&quot;origPos&quot;:null}" fill="#f1f1f1"/></g><text transform="translate(149,195.68189) scale(1.50201,1.50201)" font-size="40" xml:space="preserve" data-paper-data="{&quot;origPos&quot;:null}" fill="#000000" fill-rule="nonzero" stroke="none" stroke-width="1" stroke-linecap="butt" stroke-linejoin="miter" stroke-miterlimit="10" stroke-dasharray="" stroke-dashoffset="0" font-family="Malgun Gothic" font-weight="normal" text-anchor="start" style="mix-blend-mode: normal"><tspan x="0" dy="0">LS</tspan></text><text transform="translate(207,195.68189) scale(1.50201,1.50201)" font-size="40" xml:space="preserve" data-paper-data="{&quot;origPos&quot;:null}" fill="#009598" fill-rule="nonzero" stroke="none" stroke-width="1" stroke-linecap="butt" stroke-linejoin="miter" stroke-miterlimit="10" stroke-dasharray="" stroke-dashoffset="0" font-family="Malgun Gothic" font-weight="normal" text-anchor="start" style="mix-blend-mode: normal"><tspan x="0" dy="0">Tube     </tspan></text><text transform="translate(156,216.18909) scale(0.40972,0.3899)" font-size="40" xml:space="preserve" data-paper-data="{&quot;origPos&quot;:null}" fill="#000000" fill-rule="nonzero" stroke="none" stroke-width="1" stroke-linecap="butt" stroke-linejoin="miter" stroke-miterlimit="10" stroke-dasharray="" stroke-dashoffset="0" font-family="Malgun Gothic" font-weight="normal" text-anchor="start" style="mix-blend-mode: normal"><tspan x="0" dy="0">An perfect way to share without limits.</tspan></text></g></g></svg>